HIERARCHY
ROOT Hips
{
	OFFSET 0.000000 0.000000 0.000000
	CHANNELS 6 Xposition Yposition Zposition Xrotation Yrotation Zrotation
	JOINT LeftUpLeg_virtual
	{
		OFFSET 0.000000 0.000000 0.000000
		CHANNELS 3 Xrotation Yrotation Zrotation
		JOINT LeftUpLeg
		{
			OFFSET 15.427100 -6.655098 0.678600
			CHANNELS 3 Xrotation Yrotation Zrotation
			JOINT LeftLeg
			{
				OFFSET 4.081073 -39.591068 13.024000
				CHANNELS 3 Xrotation Yrotation Zrotation
				JOINT LeftFoot
				{
					OFFSET -4.081074 -37.707932 -15.979700
					CHANNELS 3 Xrotation Yrotation Zrotation
					JOINT LeftToeBase
					{
						OFFSET 5.346399 -15.068900 20.645000
						CHANNELS 3 Xrotation Yrotation Zrotation
						JOINT LeftToe_End
						{
							OFFSET 2.754700 0.931300 11.300900
							CHANNELS 3 Xrotation Yrotation Zrotation
							End Site
							{
								OFFSET 0 0 0
							}
						}
					}
				}
			}
		}
	}
	JOINT RightUpLeg_virtual
	{
		OFFSET 0.000000 0.000000 0.000000
		CHANNELS 3 Xrotation Yrotation Zrotation
		JOINT RightUpLeg
		{
			OFFSET -15.569500 -6.655098 0.678600
			CHANNELS 3 Xrotation Yrotation Zrotation
			JOINT RightLeg
			{
				OFFSET -4.081825 -39.591045 13.023800
				CHANNELS 3 Xrotation Yrotation Zrotation
				JOINT RightFoot
				{
					OFFSET 4.081824 -37.707954 -15.979600
					CHANNELS 3 Xrotation Yrotation Zrotation
					JOINT RightToeBase
					{
						OFFSET -5.346400 -15.068900 20.645000
						CHANNELS 3 Xrotation Yrotation Zrotation
						JOINT RightToe_End
						{
							OFFSET -2.754700 0.931300 11.300900
							CHANNELS 3 Xrotation Yrotation Zrotation
							End Site
							{
								OFFSET 0 0 0
							}
						}
					}
				}
			}
		}
	}
	JOINT Spine_virtual
	{
		OFFSET 0.000000 0.000000 0.000000
		CHANNELS 3 Xrotation Yrotation Zrotation
		JOINT Spine
		{
			OFFSET -0.279200 12.230698 -2.892100
			CHANNELS 3 Xrotation Yrotation Zrotation
			JOINT Spine1
			{
				OFFSET -0.232667 10.192268 -1.242267
				CHANNELS 3 Xrotation Yrotation Zrotation
				JOINT Spine1_split
				{
					OFFSET -0.232667 10.192268 -1.242267
					CHANNELS 3 Xrotation Yrotation Zrotation
					JOINT Spine2
					{
						OFFSET -0.232667 10.192268 -1.242267
						CHANNELS 3 Xrotation Yrotation Zrotation
						JOINT Neck_virtual
						{
							OFFSET 0.000000 0.000000 0.000000
							CHANNELS 3 Xrotation Yrotation Zrotation
							JOINT Neck
							{
								OFFSET -0.418800 17.814194 8.416900
								CHANNELS 3 Xrotation Yrotation Zrotation
								JOINT Head
								{
									OFFSET 0.000000 7.031097 3.806800
									CHANNELS 3 Xrotation Yrotation Zrotation
									JOINT HeadTop_End
									{
										OFFSET 0.000000 24.646606 12.978600
										CHANNELS 3 Xrotation Yrotation Zrotation
										End Site
										{
											OFFSET 0 0 0
										}
									}
								}
							}
						}
						JOINT LeftShoulder_virtual
						{
							OFFSET 0.000000 0.000000 0.000000
							CHANNELS 3 Xrotation Yrotation Zrotation
							JOINT LeftShoulder
							{
								OFFSET 8.476499 7.247704 -3.868750
								CHANNELS 3 Xrotation Yrotation Zrotation
								JOINT LeftShoulder_split
								{
									OFFSET 8.476499 7.247704 -3.868750
									CHANNELS 3 Xrotation Yrotation Zrotation
									JOINT LeftArm
									{
										OFFSET 9.308998 -2.777710 0.208600
										CHANNELS 3 Xrotation Yrotation Zrotation
										JOINT LeftForeArm
										{
											OFFSET 29.972298 0.000000 0.000000
											CHANNELS 3 Xrotation Yrotation Zrotation
											JOINT LeftHand
											{
												OFFSET 26.026505 0.000000 0.000000
												CHANNELS 3 Xrotation Yrotation Zrotation
												End Site
												{
													OFFSET 0 0 0
												}
											}
										}
									}
								}
							}
						}
						JOINT RightShoulder_virtual
						{
							OFFSET 0.000000 0.000000 0.000000
							CHANNELS 3 Xrotation Yrotation Zrotation
							JOINT RightShoulder
							{
								OFFSET -7.570500 7.247704 -3.868750
								CHANNELS 3 Xrotation Yrotation Zrotation
								JOINT RightShoulder_split
								{
									OFFSET -7.570500 7.247704 -3.868750
									CHANNELS 3 Xrotation Yrotation Zrotation
									JOINT RightArm
									{
										OFFSET -9.308998 -2.777710 0.208500
										CHANNELS 3 Xrotation Yrotation Zrotation
										JOINT RightForeArm
										{
											OFFSET -29.972300 0.000000 0.000000
											CHANNELS 3 Xrotation Yrotation Zrotation
											JOINT RightHand
											{
												OFFSET -26.026505 0.000000 0.000000
												CHANNELS 3 Xrotation Yrotation Zrotation
												End Site
												{
													OFFSET 0 0 0
												}
											}
										}
									}
								}
							}
						}
					}
				}
			}
		}
	}
}
MOTION
Frames: 5
Frame Time: 0.03333333
-1.296602 91.429680 -3.122114 0.000000 0.000000 0.000000 5.083220 -14.312371 10.555233 -30.875795 -7.838015 -14.159434 10.199313 -4.029077 -6.405196 16.718170 -27.929152 6.333698 0.000010 -0.675689 -0.000004 0.000000 0.000000 0.000000 5.083220 -14.312371 10.555233 6.893501 -17.073204 -11.131823 28.608181 4.031015 -5.835534 -14.901803 -0.937217 9.149986 -28.531756 0.030773 -0.621025 0.000000 0.000000 0.000000 5.083220 -14.312371 10.555233 1.811480 4.923852 0.174107 5.177707 9.319219 2.133655 0.000000 0.000000 0.000000 0.000000 0.000000 0.000000 5.034874 9.321729 2.400944 -1.845152 -1.005206 -1.922208 -8.332132 -2.916353 -12.042400 0.000000 0.000000 0.000000 5.034874 9.321729 2.400944 0.683995 -0.873507 -14.226759 0.000000 0.000000 0.000000 -18.744848 -25.288442 -72.307743 0.000073 -68.920700 0.000077 0.000000 0.000000 0.000000 5.034874 9.321729 2.400944 -0.133329 13.109086 18.148154 0.000000 0.000000 0.000000 -38.704974 64.841411 69.860295 0.000013 37.971443 -0.000017 0.000000 0.000000 0.000000 
-1.265709 91.314331 -2.976023 0.000000 0.000000 0.000000 5.191825 -14.460373 9.965738 -31.198801 -7.463677 -13.618621 11.143659 -4.437036 -6.480018 16.368552 -27.946223 6.610941 -0.000040 -0.610967 -0.000004 0.000000 0.000000 0.000000 5.191825 -14.460373 9.965738 7.758253 -17.199576 -10.423118 27.492495 4.354397 -5.563554 -15.617473 -0.799700 8.762716 -27.440340 0.026323 -0.633718 0.000000 0.000000 0.000000 5.191825 -14.460373 9.965738 1.920792 5.135635 0.458735 5.142805 9.248734 2.093732 0.000000 0.000000 0.000000 0.000000 0.000000 0.000000 5.009903 9.249995 2.349701 -2.293333 -1.110686 -1.843282 -8.922893 -3.110395 -11.930531 0.000000 0.000000 0.000000 5.009903 9.249995 2.349701 0.679169 -0.891285 -14.251472 0.000000 0.000000 0.000000 -19.028040 -25.737572 -72.345951 -0.000083 -69.038692 -0.000077 0.000000 0.000000 0.000000 5.009903 9.249995 2.349701 -0.114677 13.054873 18.076905 0.000000 0.000000 0.000000 -38.651819 64.286342 69.702839 -0.000026 39.069686 0.000020 0.000000 0.000000 0.000000 
-1.235278 91.237427 -2.837742 0.000000 0.000000 0.000000 5.310954 -14.599017 9.374182 -31.487326 -7.185963 -13.047179 11.946841 -4.779299 -6.575935 16.079558 -27.963247 6.875586 0.000029 -0.432389 0.000003 0.000000 0.000000 0.000000 5.310954 -14.599017 9.374182 8.692662 -17.295752 -9.677995 26.208469 4.723930 -5.260843 -16.275045 -0.704770 8.341633 -26.304414 0.021429 -0.641636 0.000000 0.000000 0.000000 5.310954 -14.599017 9.374182 2.022358 5.362720 0.771281 5.104401 9.188401 2.061217 0.000000 0.000000 0.000000 0.000000 0.000000 0.000000 4.981970 9.188251 2.305710 -2.771690 -1.219054 -1.795571 -9.506123 -3.368515 -11.818344 0.000000 0.000000 0.000000 4.981970 9.188251 2.305710 0.673632 -0.911965 -14.273165 0.000000 0.000000 0.000000 -19.350588 -26.206748 -72.409711 0.000044 -69.140229 0.000053 0.000000 0.000000 0.000000 4.981970 9.188251 2.305710 -0.094518 12.998466 17.993324 0.000000 0.000000 0.000000 -38.614884 63.703651 69.559282 -0.000029 40.235883 0.000033 0.000000 0.000000 0.000000 
-1.204950 91.194344 -2.694120 0.000000 0.000000 0.000000 5.432737 -14.733208 8.777847 -31.742327 -6.992795 -12.480259 12.658653 -5.058405 -6.641880 15.808970 -27.984509 7.110206 -0.000002 -0.152481 -0.000008 0.000000 0.000000 0.000000 5.432737 -14.733208 8.777847 9.683477 -17.400783 -8.889670 24.781202 5.127770 -4.986360 -16.855430 -0.623103 7.930641 -25.158220 0.016297 -0.643536 0.000000 0.000000 0.000000 5.432737 -14.733208 8.777847 2.116547 5.600478 1.111034 5.063470 9.135448 2.034099 0.000000 0.000000 0.000000 0.000000 0.000000 0.000000 4.951894 9.133790 2.266981 -3.266405 -1.329000 -1.764602 -10.085030 -3.660327 -11.710965 0.000000 0.000000 0.000000 4.951894 9.133790 2.266981 0.667686 -0.934398 -14.290965 0.000000 0.000000 0.000000 -19.695976 -26.670569 -72.497335 -0.000004 -69.220887 0.000003 0.000000 0.000000 0.000000 4.951894 9.133790 2.266981 -0.073979 12.942805 17.902076 0.000000 0.000000 0.000000 -38.594155 63.124540 69.435471 0.000013 41.407376 -0.000011 0.000000 0.000000 0.000000 
-1.173829 91.179985 -2.539822 0.000000 0.000000 0.000000 5.549293 -14.867877 8.182211 -31.958732 -6.870402 -11.937921 13.302349 -5.275890 -6.662807 15.540262 -28.010845 7.313954 -0.000007 0.215846 -0.000002 0.000000 0.000000 0.000000 5.549293 -14.867877 8.182211 10.709993 -17.499273 -8.093615 23.255399 5.524910 -4.727192 -17.334551 -0.526332 7.556459 -24.049975 0.011390 -0.639449 0.000000 0.000000 0.000000 5.549293 -14.867877 8.182211 2.204609 5.844183 1.469044 5.020959 9.087107 2.010358 0.000000 0.000000 0.000000 0.000000 0.000000 0.000000 4.920474 9.083868 2.231554 -3.763237 -1.439163 -1.736096 -10.663124 -3.956089 -11.609008 0.000000 0.000000 0.000000 4.920474 9.083868 2.231554 0.661358 -0.958357 -14.306927 0.000000 0.000000 0.000000 -20.065405 -27.141037 -72.604979 -0.000004 -69.291395 -0.000004 0.000000 0.000000 0.000000 4.920474 9.083868 2.231554 -0.052850 12.886444 17.804256 0.000000 0.000000 0.000000 -38.583793 62.534282 69.320874 -0.000035 42.608568 0.000016 0.000000 0.000000 0.000000 
